<svg xmlns="http://www.w3.org/2000/svg" viewBox="0 0 500 500"><g id="freepik--background-complete--inject-125"><path d="M286.7,237.08c.31-3.15-2.86-5.74-5.24-6-1.14-.13-2.32.12-3.39-.41-2.33-1.14-3.26-5.36-5.54-6.71-1.7-1-3.65-.11-5.3,1.05s-3.28,2.63-5.12,2.8c-1.6.14-3.34-.69-4.74.41-1,.81-1.59,2.5-2.55,3.5a4.87,4.87,0,0,1-3.34,1.27,6.93,6.93,0,0,0-3.44.79,4.14,4.14,0,0,0-1.72,3.87Z" style="fill:#fafafa"></path><path d="M256.28,215.05c.21-2.16-2-3.94-3.59-4.12a6.69,6.69,0,0,1-2.32-.28c-1.6-.79-2.24-3.68-3.8-4.6-1.17-.69-2.51-.08-3.64.72s-2.24,1.8-3.51,1.91c-1.09.1-2.29-.47-3.25.28-.71.56-1.09,1.72-1.75,2.4a3.35,3.35,0,0,1-2.29.88,4.72,4.72,0,0,0-2.35.54,2.84,2.84,0,0,0-1.19,2.65Z" style="fill:#fafafa"></path><path d="M251.55,287s.33,0,1-.08l2.87-.17a14.62,14.62,0,0,0,2.1-.26l2.52-.39c.91-.14,1.86-.46,2.89-.71l1.59-.41c.55-.14,1.09-.38,1.65-.58a43.56,43.56,0,0,0,14.92-8.81l1.92-1.75,1.8-2a45.85,45.85,0,0,0,3.48-4.4c.55-.79,1-1.65,1.54-2.49l.78-1.28c.24-.44.44-.91.67-1.36.43-.92.89-1.84,1.32-2.8l1.09-3a24.71,24.71,0,0,0,.9-3.11,25.29,25.29,0,0,0,.72-3.24c.16-1.11.33-2.23.5-3.36s.11-2.29.17-3.46c.1-4.67,0-9.56,0-14.6,0-10.1,0-20.89,0-32.24A44.4,44.4,0,0,0,266.62,155c-.75-.25-1.48-.58-2.25-.78l-2.32-.59a35.4,35.4,0,0,0-4.72-.89,72.72,72.72,0,0,0-9.71-.41,44.63,44.63,0,0,0-42.36,31c-.41,1.42-.74,2.85-1.12,4.27s-.45,2.88-.68,4.3-.16,2.88-.25,4.31,0,2.86,0,4.28c0,11.35,0,22.14,0,32.24,0,5.05-.14,9.94.28,14.58a46.29,46.29,0,0,0,3.46,12.92l1.37,2.85c.46.94,1,1.79,1.56,2.67l.78,1.3c.27.42.59.8.88,1.21.59.79,1.18,1.57,1.75,2.35l1.91,2.11.94,1c.33.32.68.63,1,.93l2,1.81c.67.57,1.38,1.06,2.06,1.58a43.74,43.74,0,0,0,15.64,7.45l1.69.44c.55.12,1.1.18,1.62.27l2.94.46,4.66.26,2.88,0,1,0s-.33,0-1,0l-2.88,0-4.67-.21-3-.44c-.53-.08-1.08-.14-1.63-.26l-1.7-.43A44,44,0,0,1,221,278.29c-.67-.52-1.4-1-2.07-1.58l-2-1.81c-.34-.31-.69-.61-1-.94l-1-1L213,270.8l-1.77-2.36c-.29-.4-.62-.79-.89-1.21l-.79-1.31c-.52-.88-1.12-1.74-1.58-2.68l-1.39-2.88a46.43,46.43,0,0,1-3.52-13c-.44-4.7-.28-9.58-.32-14.63,0-10.1,0-20.89,0-32.24,0-1.42,0-2.85,0-4.29s.12-2.89.25-4.35.42-2.9.69-4.35.71-2.88,1.12-4.32a44.77,44.77,0,0,1,8.91-15.83,45.07,45.07,0,0,1,33.92-15.53,72.54,72.54,0,0,1,9.78.43,36.44,36.44,0,0,1,4.77.89l2.34.6c.78.2,1.52.53,2.28.79a45.25,45.25,0,0,1,16,9.94,44.66,44.66,0,0,1,13.69,32.08c0,11.35,0,22.14,0,32.24,0,5.05.05,9.92-.06,14.61-.06,1.18-.12,2.34-.18,3.49s-.35,2.27-.52,3.38a25,25,0,0,1-.73,3.27,24.58,24.58,0,0,1-.92,3.13c-.37,1-.74,2-1.1,3s-.9,1.89-1.35,2.81c-.23.46-.43.93-.68,1.37l-.78,1.29c-.53.84-1,1.71-1.56,2.5a45.21,45.21,0,0,1-3.52,4.42c-.61.68-1.22,1.34-1.82,2l-1.93,1.76a43.89,43.89,0,0,1-15,8.78c-.57.19-1.11.43-1.66.57l-1.6.4c-1,.24-2,.56-2.91.69l-2.54.37a15.92,15.92,0,0,1-2.1.24l-2.88.12Z" style="fill:#e0e0e0"></path><path d="M217,201.67c0-.2,65.7,0,65.7,0s3.19-36.59-29.49-36.59S217,199.47,217,199.47Z" style="fill:#ebebeb"></path><path d="M250.17,161.45H249c-20.68,0-37.44,17.64-37.44,39.39v35.78c0,21.75,16.76,39.39,37.44,39.39h1.18c20.68,0,37.44-17.64,37.44-39.39V200.84C287.61,179.09,270.85,161.45,250.17,161.45Zm30.9,72.33c0,18.3-14.1,33.13-31.49,33.13h0c-17.39,0-31.49-14.83-31.49-33.13V203.69c0-18.3,14.1-33.14,31.49-33.14h0c17.39,0,31.49,14.84,31.49,33.14Z" style="fill:#f5f5f5"></path><rect x="240.57" y="189.76" width="21.15" height="5.07" rx="2.43" style="fill:#e0e0e0"></rect><path d="M259.29,194.83a2.75,2.75,0,0,0,1.64-.78,2.36,2.36,0,0,0,.64-2,2.26,2.26,0,0,0-1.57-2,5.45,5.45,0,0,0-1.65-.1h-1.86l-4.09,0-9.4,0a2.15,2.15,0,0,0-1.84,1,2,2,0,0,0-.32,1,2.39,2.39,0,0,0,.12,1.07,2.19,2.19,0,0,0,1.45,1.36,3.58,3.58,0,0,0,1.05.09h1.1l7.67.06,5.17.08,1.4.05a1.82,1.82,0,0,1,.49.05,1.41,1.41,0,0,1-.49,0l-1.4.05-5.17.08-7.67.06h-1.1a4.1,4.1,0,0,1-1.18-.1,2.67,2.67,0,0,1-1.8-1.66,3.1,3.1,0,0,1-.15-1.27A2.68,2.68,0,0,1,243,189.5l9.4,0,4.09,0h1.86a6.17,6.17,0,0,1,1.76.15,2.58,2.58,0,0,1,1.75,2.38,2.62,2.62,0,0,1-.79,2.11,2.43,2.43,0,0,1-1.28.63A1.07,1.07,0,0,1,259.29,194.83Z" style="fill:#e0e0e0"></path><path d="M447.66,237.08c.31-3.15-2.86-5.74-5.24-6-1.14-.13-2.32.12-3.39-.41-2.33-1.14-3.26-5.36-5.54-6.71-1.7-1-3.65-.11-5.3,1.05s-3.28,2.63-5.12,2.8c-1.6.14-3.34-.69-4.74.41-1,.81-1.59,2.5-2.55,3.5a4.87,4.87,0,0,1-3.34,1.27,6.93,6.93,0,0,0-3.44.79,4.14,4.14,0,0,0-1.72,3.87Z" style="fill:#fafafa"></path><path d="M417.24,215.05c.22-2.16-2-3.94-3.59-4.12a6.69,6.69,0,0,1-2.32-.28c-1.6-.79-2.24-3.68-3.8-4.6-1.16-.69-2.51-.08-3.64.72s-2.24,1.8-3.5,1.91c-1.1.1-2.29-.47-3.26.28-.71.56-1.09,1.72-1.75,2.4a3.34,3.34,0,0,1-2.28.88,4.76,4.76,0,0,0-2.36.54,2.82,2.82,0,0,0-1.18,2.65Z" style="fill:#fafafa"></path><path d="M412.51,287s.33,0,1-.08l2.87-.17a14.62,14.62,0,0,0,2.1-.26l2.52-.39c.91-.14,1.86-.46,2.89-.71l1.59-.41c.55-.14,1.09-.38,1.65-.58A43.68,43.68,0,0,0,442,275.58l1.91-1.75,1.8-2a45.85,45.85,0,0,0,3.48-4.4c.55-.79,1-1.65,1.54-2.49l.78-1.28c.24-.44.44-.91.67-1.36.43-.92.89-1.84,1.32-2.8l1.09-3a24.71,24.71,0,0,0,.9-3.11,25.29,25.29,0,0,0,.72-3.24c.16-1.11.33-2.23.5-3.36s.11-2.29.17-3.46c.1-4.67,0-9.56,0-14.6,0-10.1,0-20.89,0-32.24A44.4,44.4,0,0,0,427.58,155c-.75-.25-1.48-.58-2.25-.78l-2.32-.59a35.4,35.4,0,0,0-4.72-.89,72.65,72.65,0,0,0-9.71-.41,44.63,44.63,0,0,0-42.36,31c-.41,1.42-.74,2.85-1.12,4.27s-.45,2.88-.68,4.3-.16,2.88-.25,4.31,0,2.86,0,4.28c0,11.35,0,22.14,0,32.24,0,5.05-.14,9.94.28,14.58a46.63,46.63,0,0,0,3.46,12.92l1.37,2.85c.46.94,1,1.79,1.56,2.67.26.44.53.87.79,1.3s.59.8.87,1.21c.6.79,1.18,1.57,1.76,2.35l1.91,2.11.93,1c.33.32.68.63,1,.93l2,1.81c.67.57,1.38,1.06,2.06,1.58a43.74,43.74,0,0,0,15.64,7.45l1.69.44c.55.12,1.1.18,1.62.27l2.94.46,4.67.26,2.87,0,1,0s-.33,0-1,0l-2.87,0-4.68-.21-3-.44c-.53-.08-1.07-.14-1.63-.26l-1.7-.43a43.83,43.83,0,0,1-15.76-7.41c-.68-.52-1.41-1-2.08-1.58l-2-1.81c-.34-.31-.69-.61-1-.94l-.95-1L374,270.8l-1.77-2.36c-.29-.4-.61-.79-.89-1.21l-.79-1.31c-.52-.88-1.12-1.74-1.58-2.68l-1.39-2.88a46.43,46.43,0,0,1-3.52-13c-.44-4.7-.28-9.58-.32-14.63,0-10.1,0-20.89,0-32.24,0-1.42,0-2.85,0-4.29s.11-2.89.24-4.35.42-2.9.69-4.35.71-2.88,1.13-4.32a44.75,44.75,0,0,1,8.9-15.83,45.07,45.07,0,0,1,33.92-15.53,72.54,72.54,0,0,1,9.78.43,36.44,36.44,0,0,1,4.77.89l2.35.6c.78.2,1.51.53,2.27.79a45.16,45.16,0,0,1,16,9.94,44.31,44.31,0,0,1,10.25,15,44.8,44.8,0,0,1,3.44,17.09c0,11.35,0,22.14,0,32.24,0,5.05,0,9.92-.07,14.61-.06,1.18-.12,2.34-.18,3.49s-.35,2.27-.52,3.38a23.49,23.49,0,0,1-.73,3.27,24.58,24.58,0,0,1-.92,3.13c-.37,1-.74,2-1.1,3s-.9,1.89-1.34,2.81c-.23.46-.44.93-.68,1.37s-.53.86-.79,1.29c-.53.84-1,1.71-1.56,2.5a45.21,45.21,0,0,1-3.52,4.42c-.61.68-1.22,1.34-1.82,2l-1.93,1.76a43.89,43.89,0,0,1-15.05,8.78c-.57.19-1.11.43-1.66.57l-1.6.4c-1,.24-2,.56-2.91.69l-2.54.37a15.92,15.92,0,0,1-2.1.24l-2.88.12Z" style="fill:#e0e0e0"></path><path d="M378,201.67c0-.2,65.7,0,65.7,0s3.19-36.59-29.49-36.59S378,199.47,378,199.47Z" style="fill:#ebebeb"></path><path d="M411.13,161.45H410c-20.68,0-37.44,17.64-37.44,39.39v35.78c0,21.75,16.76,39.39,37.44,39.39h1.18c20.68,0,37.44-17.64,37.44-39.39V200.84C448.57,179.09,431.81,161.45,411.13,161.45ZM442,233.78c0,18.3-14.1,33.13-31.49,33.13h0c-17.39,0-31.49-14.83-31.49-33.13V203.69c0-18.3,14.1-33.14,31.49-33.14h0c17.39,0,31.49,14.84,31.49,33.14Z" style="fill:#f5f5f5"></path><rect x="401.54" y="189.76" width="21.15" height="5.07" rx="2.43" style="fill:#e0e0e0"></rect><path d="M420.26,194.83a2.76,2.76,0,0,0,1.63-.78,2.39,2.39,0,0,0,.65-2,2.28,2.28,0,0,0-1.58-2,5.43,5.43,0,0,0-1.65-.1h-1.85l-4.1,0-9.4,0a2.18,2.18,0,0,0-1.84,1,2,2,0,0,0-.32,1,2.39,2.39,0,0,0,.12,1.07,2.18,2.18,0,0,0,1.46,1.36,3.48,3.48,0,0,0,1,.09h1.1l7.67.06,5.17.08,1.41.05a1.91,1.91,0,0,1,.49.05,1.47,1.47,0,0,1-.49,0l-1.41.05-5.17.08-7.67.06h-1.1a4.1,4.1,0,0,1-1.18-.1,2.67,2.67,0,0,1-1.8-1.66,3.28,3.28,0,0,1-.15-1.27A2.68,2.68,0,0,1,404,189.5l9.4,0,4.1,0h1.85a6.17,6.17,0,0,1,1.76.15,2.58,2.58,0,0,1,1.75,2.38,2.62,2.62,0,0,1-.78,2.11,2.48,2.48,0,0,1-1.29.63A1,1,0,0,1,420.26,194.83Z" style="fill:#e0e0e0"></path><path d="M86.31,287s.33,0,1-.08l2.87-.17a14.46,14.46,0,0,0,2.1-.26l2.52-.39c.92-.14,1.86-.46,2.9-.71l1.59-.41c.55-.14,1.08-.38,1.65-.58a43.65,43.65,0,0,0,14.92-8.81l1.92-1.75,1.8-2a45.78,45.78,0,0,0,3.47-4.4c.55-.79,1-1.65,1.55-2.49.25-.43.51-.85.77-1.28s.44-.91.67-1.36c.44-.92.9-1.84,1.33-2.8s.72-2,1.08-3a26.54,26.54,0,0,0,.91-3.11,27.08,27.08,0,0,0,.71-3.24q.26-1.66.51-3.36c0-1.14.11-2.29.17-3.46.1-4.67,0-9.56,0-14.6,0-10.1,0-20.89,0-32.24A44.4,44.4,0,0,0,101.37,155c-.75-.25-1.48-.58-2.25-.78l-2.31-.59a35.85,35.85,0,0,0-4.73-.89,72.65,72.65,0,0,0-9.71-.41,44.59,44.59,0,0,0-42.35,31c-.41,1.42-.75,2.85-1.12,4.27s-.45,2.88-.68,4.3-.17,2.88-.25,4.31,0,2.86,0,4.28c0,11.35,0,22.14,0,32.24,0,5.05-.14,9.94.28,14.58a46.64,46.64,0,0,0,3.47,12.92L43,263.07c.45.94,1,1.79,1.55,2.67l.79,1.3c.27.42.59.8.88,1.21L48,270.6l1.91,2.11.93,1,1,.93,2,1.81c.67.57,1.39,1.06,2.06,1.58a43.82,43.82,0,0,0,15.64,7.45l1.69.44c.55.12,1.1.18,1.62.27l3,.46,4.66.26,2.88,0,1,0s-.34,0-1,0l-2.88,0-4.68-.21-3-.44c-.53-.08-1.08-.14-1.64-.26l-1.7-.43a44,44,0,0,1-15.76-7.41c-.68-.52-1.4-1-2.08-1.58s-1.32-1.2-2-1.81c-.33-.31-.68-.61-1-.94l-.94-1-1.93-2.13c-.58-.77-1.18-1.56-1.77-2.36-.3-.4-.62-.79-.89-1.21l-.8-1.31c-.51-.88-1.12-1.74-1.58-2.68s-.92-1.91-1.39-2.88a46.77,46.77,0,0,1-3.52-13c-.44-4.7-.27-9.58-.31-14.63,0-10.1,0-20.89,0-32.24,0-1.42,0-2.85,0-4.29s.11-2.89.25-4.35.42-2.9.68-4.35.72-2.88,1.13-4.32a44.75,44.75,0,0,1,8.9-15.83,45.07,45.07,0,0,1,33.92-15.53,72.39,72.39,0,0,1,9.78.43,36.28,36.28,0,0,1,4.78.89l2.34.6c.78.2,1.52.53,2.28.79a45.21,45.21,0,0,1,16,9.94,44.56,44.56,0,0,1,13.69,32.08c0,11.35,0,22.14,0,32.24,0,5.05,0,9.92-.07,14.61-.06,1.18-.12,2.34-.18,3.49s-.34,2.27-.52,3.38a25,25,0,0,1-.72,3.27,26.33,26.33,0,0,1-.92,3.13l-1.11,3c-.43,1-.9,1.89-1.34,2.81-.23.46-.43.93-.68,1.37l-.78,1.29c-.53.84-1,1.71-1.57,2.5a46.69,46.69,0,0,1-3.51,4.42L118,274,116,275.8a43.71,43.71,0,0,1-15,8.78c-.57.19-1.1.43-1.66.57l-1.6.4c-1,.24-2,.56-2.91.69l-2.53.37a15.87,15.87,0,0,1-2.11.24l-2.87.12Z" style="fill:#e0e0e0"></path><path d="M51.77,201.67c0-.2,65.7,0,65.7,0s3.19-36.59-29.48-36.59-36.22,34.39-36.22,34.39Z" style="fill:#ebebeb"></path><path d="M84.93,161.45H83.74c-20.67,0-37.43,17.64-37.43,39.39v35.78c0,21.75,16.76,39.39,37.43,39.39h1.19c20.67,0,37.43-17.64,37.43-39.39V200.84C122.36,179.09,105.6,161.45,84.93,161.45Zm30.89,72.33c0,18.3-14.1,33.13-31.49,33.13h0c-17.38,0-31.48-14.83-31.48-33.13V203.69c0-18.3,14.1-33.14,31.48-33.14h0c17.39,0,31.49,14.84,31.49,33.14Z" style="fill:#f5f5f5"></path><rect x="75.33" y="189.76" width="21.15" height="5.07" rx="2.43" style="fill:#e0e0e0"></rect><path d="M94.05,194.83a2.77,2.77,0,0,0,1.64-.78,2.42,2.42,0,0,0,.64-2,2.27,2.27,0,0,0-1.58-2,5.38,5.38,0,0,0-1.64-.1H91.25l-4.1,0-9.39,0a2.18,2.18,0,0,0-1.85,1,2.15,2.15,0,0,0-.32,1,2.72,2.72,0,0,0,.12,1.07,2.2,2.2,0,0,0,1.46,1.36,3.52,3.52,0,0,0,1,.09h1.09l7.67.06,5.17.08,1.41.05a1.91,1.91,0,0,1,.49.05,1.47,1.47,0,0,1-.49,0l-1.41.05L87,195l-7.67.06H78.22A4,4,0,0,1,77,195a2.65,2.65,0,0,1-1.8-1.66,3.11,3.11,0,0,1-.16-1.27,2.6,2.6,0,0,1,.4-1.26,2.7,2.7,0,0,1,2.28-1.28l9.39,0,4.1,0h1.86a6.07,6.07,0,0,1,1.75.15,2.59,2.59,0,0,1,1.76,2.38,2.65,2.65,0,0,1-.79,2.11,2.46,2.46,0,0,1-1.28.63A1.07,1.07,0,0,1,94.05,194.83Z" style="fill:#e0e0e0"></path><path d="M461.71,115.48c0,.14-99.83.26-222.95.26s-223-.12-223-.26,99.81-.26,223-.26S461.71,115.34,461.71,115.48Z" style="fill:#e0e0e0"></path><path d="M476.28,129.61c0,.14-103.82.26-231.85.26s-231.88-.12-231.88-.26,103.79-.25,231.88-.25S476.28,129.47,476.28,129.61Z" style="fill:#e0e0e0"></path><path d="M168.69,419.7s0-.34,0-1,0-1.67,0-3c0-2.62,0-6.46,0-11.4,0-9.92-.05-24.25-.08-41.95,0-35.43,0-84.35-.08-138.39,0-34.32,0-66.58,0-94.37v-.1l.07-.07,15.9-14.12-.07.16c0-24.37.06-44.39.09-58.33,0-7,0-12.4,0-16.12,0-1.84,0-3.25,0-4.22s0-1.44,0-1.44,0,.49,0,1.44,0,2.38,0,4.22c0,3.72,0,9.16.06,16.12,0,13.94.05,34,.09,58.33v.09l-.07.06-15.87,14.15.08-.17c0,27.79,0,60,0,94.37,0,54-.06,103-.08,138.39,0,17.7-.06,32-.08,41.95,0,4.94,0,8.78,0,11.4,0,1.3,0,2.29,0,3S168.69,419.7,168.69,419.7Z" style="fill:#e0e0e0"></path><path d="M327.53,419.7s0-.34,0-1,0-1.67,0-3c0-2.62,0-6.46-.05-11.4,0-9.92,0-24.25-.08-41.95,0-35.43,0-84.35-.07-138.39,0-34.32,0-66.58,0-94.37v-.1l.08-.07,15.89-14.12-.07.16c0-24.37.07-44.39.09-58.33,0-7,0-12.4.06-16.12,0-1.84,0-3.25,0-4.22s0-1.44,0-1.44,0,.49,0,1.44,0,2.38,0,4.22c0,3.72,0,9.16,0,16.12,0,13.94.06,34,.09,58.33v.09l-.07.06-15.87,14.15.08-.17c0,27.79,0,60,0,94.37,0,54-.05,103-.07,138.39,0,17.7-.07,32-.09,41.95,0,4.94,0,8.78,0,11.4q0,1.95,0,3C327.55,419.36,327.53,419.7,327.53,419.7Z" style="fill:#e0e0e0"></path><rect x="193.78" y="29.55" width="131.62" height="72.96" rx="7.28" style="fill:#f5f5f5"></rect><path d="M245,85.71h29.14S259.59,101.63,245,85.71Z" style="fill:#e0e0e0"></path><rect x="356.93" y="29.55" width="125.67" height="72.96" rx="7.28" style="fill:#f5f5f5"></rect><path d="M411.47,85.71h29.15S426.05,101.63,411.47,85.71Z" style="fill:#e0e0e0"></path><rect x="30.46" y="29.55" width="125.67" height="72.96" rx="7.28" style="fill:#f5f5f5"></rect><path d="M78.72,85.71h29.14S93.29,101.63,78.72,85.71Z" style="fill:#e0e0e0"></path><path d="M139.81,136.67l.51,0a8.65,8.65,0,0,1,1.49.12,12.68,12.68,0,0,1,5.53,2.2,16.85,16.85,0,0,1,6.22,8.25,20.08,20.08,0,0,1,1.16,7c0,2.54,0,5.23,0,8.09,0,22.85.05,55.91.08,96.76s0,89.5.06,143.51v30.93a32.46,32.46,0,0,1-.23,5.29,19.44,19.44,0,0,1-1.46,5.07,18.68,18.68,0,0,1-2.73,4.35,16.16,16.16,0,0,1-3.75,3.18,13.31,13.31,0,0,1-4.44,1.7,22.82,22.82,0,0,1-4.66.25H40.74a13.94,13.94,0,0,1-9.42-3.85A18.18,18.18,0,0,1,26,439.72a28.2,28.2,0,0,1-.39-5.79v-62c0-29.39,0-57.75,0-84.76s0-52.67,0-76.7q0-18,0-34.75,0-8.37,0-16.39v-4a27.77,27.77,0,0,1,.18-4,19.42,19.42,0,0,1,2.41-7.25,14.94,14.94,0,0,1,10.8-7.54c.52-.06,1-.07,1.57-.11H51.3l22.32,0,35.73.05,22.59.06,5.87,0,2,0-2,0-5.87,0-22.59.06-35.73.05-22.32,0H40.68c-.51,0-1,0-1.54.11a14.61,14.61,0,0,0-10.53,7.38,18.91,18.91,0,0,0-2.34,7.08,27.86,27.86,0,0,0-.18,3.9v20.37q0,16.72,0,34.75c0,24,0,49.69,0,76.7s0,55.37,0,84.76v62a27.26,27.26,0,0,0,.38,5.66,17.63,17.63,0,0,0,5.1,9.45,13.44,13.44,0,0,0,9.1,3.72H137.6a22.4,22.4,0,0,0,4.58-.24,12.84,12.84,0,0,0,4.29-1.64,16.06,16.06,0,0,0,3.64-3.08,17.71,17.71,0,0,0,2.63-4.2,18.25,18.25,0,0,0,1.42-4.91,33.08,33.08,0,0,0,.23-5.19V402.58c0-54,0-102.66.06-143.51s.06-73.91.08-96.76c-.12-5.67.52-10.91-1.11-15a16.71,16.71,0,0,0-6.13-8.21,12.65,12.65,0,0,0-5.49-2.24,8.48,8.48,0,0,0-1.49-.16Z" style="fill:#e0e0e0"></path><path d="M296.78,137.14h.51a10.34,10.34,0,0,1,1.5.13,12.6,12.6,0,0,1,5.56,2.23,16.77,16.77,0,0,1,6.22,8.34,20.34,20.34,0,0,1,1.12,7c0,2.55,0,5.26,0,8.13,0,23,.05,56.26.08,97.36s0,90.06.06,144.4v31.13a21.5,21.5,0,0,1-.6,5.3,20.18,20.18,0,0,1-2,4.88,15.78,15.78,0,0,1-7.24,6.63,12.3,12.3,0,0,1-4.6,1.09c-1.57.07-3.11,0-4.67,0H195.31a13.93,13.93,0,0,1-9.47-3.9,18.26,18.26,0,0,1-5.26-9.88,30.21,30.21,0,0,1-.36-5.84V371.82c0-29.57,0-58.1,0-85.28s0-53,0-77.17q0-18.13,0-35V157.91a34.8,34.8,0,0,1,.52-8,18.31,18.31,0,0,1,3.13-6.92,14.26,14.26,0,0,1,11.54-6.08l12.26,0,22.45,0,36,.05,22.72.06,5.91,0,2,0-2,0-5.91,0-22.72.05-36,.05-22.45,0H195.47a13.88,13.88,0,0,0-11.26,5.94,17.82,17.82,0,0,0-3.05,6.76,34.6,34.6,0,0,0-.5,7.87q0,8.07,0,16.48,0,16.83,0,35c0,24.16,0,50,0,77.17s0,55.71,0,85.28v62.39a29.22,29.22,0,0,0,.35,5.71,17.7,17.7,0,0,0,5.08,9.55,13.49,13.49,0,0,0,9.15,3.76h97.46c3.11-.06,6.26.31,9.1-1.09a15.22,15.22,0,0,0,7-6.41,19.28,19.28,0,0,0,1.9-4.72,21.12,21.12,0,0,0,.59-5.14V404.75c0-54.34,0-103.29.06-144.4s.06-74.36.08-97.36c-.12-5.71.52-11-1.07-15.08a16.78,16.78,0,0,0-6.13-8.3,12.83,12.83,0,0,0-5.52-2.27,11.17,11.17,0,0,0-1.49-.16Z" style="fill:#e0e0e0"></path><path d="M458.13,137.14h.5a10.13,10.13,0,0,1,1.5.13,12.63,12.63,0,0,1,5.57,2.23,16.82,16.82,0,0,1,6.21,8.34,20.34,20.34,0,0,1,1.12,7q0,3.82,0,8.13c0,23,0,56.26.09,97.36s0,90.06.05,144.4q0,10.2,0,20.63v10.5a22,22,0,0,1-.61,5.3,20.18,20.18,0,0,1-2,4.88,15.76,15.76,0,0,1-7.23,6.63,12.39,12.39,0,0,1-4.6,1.09c-1.57.07-3.11,0-4.67,0H356.66a14,14,0,0,1-9.48-3.9,18.26,18.26,0,0,1-5.26-9.88,30.21,30.21,0,0,1-.36-5.84V416.94q0-22.92,0-45.12c0-29.57,0-58.1,0-85.28s0-53,0-77.17q0-18.13,0-35,0-8.41,0-16.48a33.71,33.71,0,0,1,.52-8,18,18,0,0,1,3.13-6.92,14.24,14.24,0,0,1,11.53-6.08l12.26,0,22.45,0,36,.05,22.72.06,5.91,0,2,0-2,0-5.91,0-22.72.05-36,.05-22.45,0H356.81a13.88,13.88,0,0,0-11.26,5.94,17.65,17.65,0,0,0-3,6.76,33.5,33.5,0,0,0-.5,7.87q0,8.07,0,16.48,0,16.83,0,35c0,24.16,0,50,0,77.17s0,55.71,0,85.28v62.39a30,30,0,0,0,.35,5.71,17.76,17.76,0,0,0,5.08,9.55,13.51,13.51,0,0,0,9.16,3.76h97.46c3.1-.06,6.25.31,9.09-1.09a15.24,15.24,0,0,0,7-6.41,19.26,19.26,0,0,0,1.89-4.72,21.12,21.12,0,0,0,.59-5.14v-10.5q0-10.44,0-20.63c0-54.34,0-103.29.05-144.4s.07-74.36.09-97.36c-.13-5.71.52-11-1.08-15.08a16.77,16.77,0,0,0-6.12-8.3,12.87,12.87,0,0,0-5.52-2.27,11.28,11.28,0,0,0-1.5-.16Z" style="fill:#e0e0e0"></path><path d="M76.38,122.18H82.1a0,0,0,0,1,0,0v.58a2.78,2.78,0,0,1-2.78,2.78h-.16a2.78,2.78,0,0,1-2.78-2.78v-.58A0,0,0,0,1,76.38,122.18Z" style="fill:#e0e0e0"></path><path d="M84.07,119.54H89.8a0,0,0,0,1,0,0v.58A2.78,2.78,0,0,1,87,122.91h-.16a2.78,2.78,0,0,1-2.78-2.78v-.58A0,0,0,0,1,84.07,119.54Z" style="fill:#e0e0e0"></path><path d="M245.07,124h5.73a0,0,0,0,1,0,0v.58a2.78,2.78,0,0,1-2.78,2.78h-.16a2.78,2.78,0,0,1-2.78-2.78V124A0,0,0,0,1,245.07,124Z" style="fill:#ebebeb"></path><path d="M252.77,121.37h5.73a0,0,0,0,1,0,0V122a2.78,2.78,0,0,1-2.78,2.78h-.16a2.78,2.78,0,0,1-2.78-2.78v-.58A0,0,0,0,1,252.77,121.37Z" style="fill:#ebebeb"></path><path d="M400.91,124h5.73a0,0,0,0,1,0,0v.58a2.78,2.78,0,0,1-2.78,2.78h-.16a2.78,2.78,0,0,1-2.78-2.78V124A0,0,0,0,1,400.91,124Z" style="fill:#ebebeb"></path><path d="M408.61,121.37h5.73a0,0,0,0,1,0,0V122a2.78,2.78,0,0,1-2.78,2.78h-.16a2.78,2.78,0,0,1-2.78-2.78v-.58A0,0,0,0,1,408.61,121.37Z" style="fill:#ebebeb"></path></g><g id="freepik--Floor--inject-125"><path d="M468.59,462.93c0,.14-97.43.26-217.58.26s-217.6-.12-217.6-.26,97.41-.26,217.6-.26S468.59,462.79,468.59,462.93Z" style="fill:#263238"></path></g><g id="freepik--Seat--inject-125"><path d="M199.7,164.75s1.86-4.64,9.76-4.18A15.22,15.22,0,0,1,222,168.94c.93,1.86,1.86,47.42-4.65,70.66S178.31,369.31,171.81,380l-39.52-2.33s-4.65-20,0-40.44,10.23-31.15,14.88-39.06,23.69-48.81,29.28-61.36L182,224.26s-8.76-2.52-9.22-10.89c-.4-7.12,6.94-34.17,9.13-42.06a14.16,14.16,0,0,1,4.09-6.75C188.9,162,193.5,160.11,199.7,164.75Z" style="fill:#455a64"></path><path d="M199.7,164.75a2.67,2.67,0,0,1,0,.65c0,.47-.1,1.08-.17,1.83-.16,1.59-.45,3.89-.85,6.72a197.58,197.58,0,0,1-4.31,21.91,117.26,117.26,0,0,1-3.65,11.76c-.61,1.79-1.36,3.43-2,5s-1.32,3-2,4.22-1.26,2.42-1.89,3.37a27.9,27.9,0,0,1-1.59,2.45c-.44.61-.81,1.1-1.09,1.48a3.67,3.67,0,0,1-.41.5,3.47,3.47,0,0,1,.32-.56l1-1.53c.46-.65.92-1.51,1.5-2.49s1.17-2.12,1.82-3.38,1.25-2.72,2-4.23,1.33-3.2,1.93-5c1.31-3.53,2.5-7.51,3.6-11.72,2.21-8.42,3.54-16.21,4.45-21.84.44-2.82.78-5.1,1-6.69.12-.74.21-1.34.28-1.81A3.16,3.16,0,0,1,199.7,164.75Z" style="fill:#263238"></path><path d="M34.45,370.81s-8.25-20.95,13.46-22.24,83.91,0,83.91,0,9.68.43,10.32,6.88-.86,15.36-.86,15.36Z" style="fill:#455a64"></path><path d="M63.42,413.46l-9.05,49.39h14.8s3-38.77,13.62-49.74l-4.35-9.41Z" style="fill:#e0e0e0"></path><path d="M87.61,413.05l80.46,49.8h13S135.74,428,141,410.87L124.83,398.4,89,408.52Z" style="fill:#e0e0e0"></path><path d="M164.06,318.89l-95.25-1.08c-9.84-.25-18.19,9-20.44,18.62l-.09.37a.18.18,0,0,0,.17.22l135.11.72C183.56,328.23,173.57,319.13,164.06,318.89Z" style="fill:#e0e0e0"></path><path d="M157.47,337s1.67,24.58-18.34,27.28-93.55,1.4-96.56,1.63c-8.1.61-8.12,4.86-8.12,4.86s9.8,39.4,16,40.85S162,413,162.66,413.28s16.7-52.42,16.7-52.42l4.19-23.38Z" style="fill:#e0e0e0"></path><path d="M162.66,413.28a1.07,1.07,0,0,1-.28,0l-.82,0-3.16,0-11.6,0c-9.79,0-23.32-.15-38.27-.35l-38.27-.49-11.6-.14-3.15-.05-.82,0a1,1,0,0,1-.28,0l.28,0,.82,0,3.15,0,11.6,0c9.8,0,23.33.14,38.28.34l38.27.5,11.59.13,3.16.05.82,0Z" style="fill:#263238"></path><path d="M183.56,337.74c0,.14-30,.13-66.94,0s-66.94-.4-66.94-.54,30-.14,66.94,0S183.56,337.6,183.56,337.74Z" style="fill:#263238"></path></g><g id="freepik--character-2--inject-125"><path d="M357.5,201.24c.27-5.43,1.73-16.58,3.16-26.66a21,21,0,0,1,22.08-18l1.08.06c11.67,1.4,17,12.09,15.27,23.71l-3.68,37.3-.1.34-8.65,14.72-13.43,11.46-6.53-10.62.76-10.12.64-8.49S357,212.5,357.5,201.24Z" style="fill:#ffbf9d"></path><path d="M368.08,214.93A26.17,26.17,0,0,0,383,211.66s-4,7.89-15.13,6.19Z" style="fill:#ff9a6c"></path><path d="M363.29,183.64a1.6,1.6,0,0,0,1.45,1.72,1.54,1.54,0,0,0,1.74-1.35,1.61,1.61,0,0,0-1.45-1.72A1.54,1.54,0,0,0,363.29,183.64Z" style="fill:#263238"></path><path d="M362.61,179.63c.19.22,1.46-.61,3.19-.5s2.94,1.06,3.14.86-.08-.48-.61-.92a4.43,4.43,0,0,0-2.5-.94,4.26,4.26,0,0,0-2.55.65C362.72,179.16,362.52,179.53,362.61,179.63Z" style="fill:#263238"></path><path d="M378.58,184.46a1.6,1.6,0,0,0,1.45,1.71,1.53,1.53,0,0,0,1.74-1.34,1.61,1.61,0,0,0-1.45-1.72A1.54,1.54,0,0,0,378.58,184.46Z" style="fill:#263238"></path><path d="M379.87,180.19c.16.25,1.52-.44,3.22-.14s2.81,1.36,3,1.19,0-.49-.5-1a4.42,4.42,0,0,0-2.39-1.21,4.32,4.32,0,0,0-2.61.38C380,179.74,379.79,180.09,379.87,180.19Z" style="fill:#263238"></path><path d="M372.66,194a11.42,11.42,0,0,0-2.78-.68c-.44-.07-.85-.19-.91-.49a2.25,2.25,0,0,1,.38-1.29c.48-1,1-2.14,1.51-3.28,2.11-4.68,3.66-8.53,3.47-8.62s-2.05,3.64-4.15,8.32c-.51,1.15-1,2.25-1.46,3.3a2.57,2.57,0,0,0-.34,1.72,1.1,1.1,0,0,0,.69.69,3.46,3.46,0,0,0,.74.15A11.34,11.34,0,0,0,372.66,194Z" style="fill:#263238"></path><path d="M380.09,172.72c.14.48,1.88.36,3.89.73s3.62,1,3.92.62c.13-.19-.13-.65-.76-1.15a6.91,6.91,0,0,0-5.95-1C380.43,172.15,380,172.49,380.09,172.72Z" style="fill:#263238"></path><path d="M363.3,173c.28.41,1.5.07,2.93.14s2.63.43,2.94,0c.13-.2,0-.6-.54-1a4.3,4.3,0,0,0-4.73-.14C363.37,172.36,363.18,172.76,363.3,173Z" style="fill:#263238"></path><path d="M397.66,188.63c.2-.08,7.87-1.82,7.16,5.86s-8.28,5.37-8.27,5.15S397.66,188.63,397.66,188.63Z" style="fill:#ffbf9d"></path><path d="M399.16,197s.13.11.35.23a1.34,1.34,0,0,0,1,.12,3.33,3.33,0,0,0,1.81-2.83,4.46,4.46,0,0,0-.19-1.95,1.58,1.58,0,0,0-.91-1.12.7.7,0,0,0-.83.29c-.12.21-.09.37-.13.38s-.15-.15-.06-.46a.85.85,0,0,1,.35-.45,1,1,0,0,1,.76-.13,1.89,1.89,0,0,1,1.28,1.32,4.6,4.6,0,0,1,.27,2.18c-.2,1.55-1.13,2.92-2.26,3.14a1.46,1.46,0,0,1-1.21-.32C399.16,197.14,399.14,197,399.16,197Z" style="fill:#ff9a6c"></path><path d="M360.22,161.38a3.92,3.92,0,0,1,3.14-3,3.5,3.5,0,0,1,5.72-3.74,3.61,3.61,0,0,1,5.1-2.92,3,3,0,0,1,5.78-1.31,5.24,5.24,0,0,1,8.19-.16,6.69,6.69,0,0,1,7.89,4.08,6.36,6.36,0,0,1,5.32,4.7,4.65,4.65,0,0,1,3,7.47,3.45,3.45,0,0,1,.38,5.47,3.38,3.38,0,0,1-.47,6.1c1.13.2,1.49,1.73,1.09,2.8s-1.28,1.89-1.79,2.91c-.42.85-.59,1.79-1,2.66a6.07,6.07,0,0,1-3.84,3.4l.18.25c.14,1-1.27,1.59-2.18,1.14a5,5,0,0,1-1.85-2.32,11,11,0,0,1-1.43-3.14,2.69,2.69,0,0,1,1.24-3,4,4,0,0,1-2.24-3.32,11.73,11.73,0,0,1,.49-4.15q.73-3,1.46-6a7.71,7.71,0,0,1-6.37-4.76,4.41,4.41,0,0,1-6.29-2,5.75,5.75,0,0,1-7.19,3.12c.21,1.61-2.74,2.91-4.33,3.24a5.68,5.68,0,0,1-3.48-.9s-2.79,1.43-4.23.75-3.25-2.64-2.21-4.1A7.18,7.18,0,0,1,360.22,161.38Z" style="fill:#263238"></path><path d="M405.12,172c-.07,0-.15.52-.82,1a1.51,1.51,0,0,1-1.28.15,1.59,1.59,0,0,1-1-1.2l-.06-.47-.38.29a2,2,0,0,1-3.2-1.91l.08-.45-.43.15a2.08,2.08,0,0,1-1.56-.1,2.11,2.11,0,0,1-.89-.89,4.72,4.72,0,0,1-.32-1.15s-.27.47,0,1.28a2.29,2.29,0,0,0,1,1.15,2.45,2.45,0,0,0,1.94.22l-.35-.3a2.52,2.52,0,0,0,4.07,2.43l-.44-.18a2,2,0,0,0,1.4,1.56,1.79,1.79,0,0,0,1.61-.31C405.22,172.63,405.16,172,405.12,172Z" style="fill:#455a64"></path><path d="M405.83,179.45a4.61,4.61,0,0,1-.84.27,1.84,1.84,0,0,1-1.88-.94l-.14-.27-.23.21a2.06,2.06,0,0,1-2,.43,2,2,0,0,1-1.33-1.88v-.51L399,177a1.29,1.29,0,0,1-.36.14,1.42,1.42,0,0,1-1.52-.61,1.49,1.49,0,0,1,0-1.54l.31-.46-.54.06a2.48,2.48,0,0,1-1.75-.54,2.52,2.52,0,0,1-.8-1.23,5.09,5.09,0,0,1-.09-1.35s-.36.47-.21,1.42a2.65,2.65,0,0,0,.82,1.48,2.83,2.83,0,0,0,2.07.73l-.24-.41a2,2,0,0,0-.09,2.12,2,2,0,0,0,2.14.9,1.89,1.89,0,0,0,.53-.21l-.44-.25a2.46,2.46,0,0,0,4.22,1.78l-.36-.06a1.94,1.94,0,0,0,1.2,1,2,2,0,0,0,1.14,0C405.66,179.8,405.86,179.46,405.83,179.45Z" style="fill:#455a64"></path><path d="M375.2,151.6a2.85,2.85,0,0,1,.9-.44,1.62,1.62,0,0,1,1.12.13,1.68,1.68,0,0,1,.87,1.17l.07.44.26-.38a2.79,2.79,0,0,1,2.45-1.18,2.71,2.71,0,0,1,2.42,2.08l.12.52.34-.4a3.45,3.45,0,0,1,2.74-1.12,3.27,3.27,0,0,1,2.64,1.69,3.49,3.49,0,0,1,.41,1.28l0,.31.31-.06a3.29,3.29,0,0,1,3.56,1.94,3.34,3.34,0,0,1-.76,3.56l-.31.3.42.1a3.65,3.65,0,0,1,2.21,1.61,3.57,3.57,0,0,1,.52,2.08,5.73,5.73,0,0,1-.51,1.84s.14-.11.32-.4a3.79,3.79,0,0,0,.46-1.41,3.85,3.85,0,0,0-.46-2.3,4,4,0,0,0-2.43-1.87l.1.4a3.73,3.73,0,0,0-3.23-6.41l.34.25a3.67,3.67,0,0,0-.48-1.5,3.82,3.82,0,0,0-3.11-2,4,4,0,0,0-3.17,1.34l.46.11a3.13,3.13,0,0,0-5.7-1l.33.07a1.94,1.94,0,0,0-1.1-1.36,1.77,1.77,0,0,0-1.29-.06,1.71,1.71,0,0,0-.69.41C375.23,151.51,375.19,151.59,375.2,151.6Z" style="fill:#455a64"></path><path d="M377.82,194.69c.14,0,.26.42.13,1.09a3.95,3.95,0,0,1-3.85,3.09c-.68,0-1.05-.22-1-.36s1.56-.27,2.85-1.32S377.53,194.65,377.82,194.69Z" style="fill:#263238"></path><path d="M303.58,312.6a30.78,30.78,0,0,1-6.41-.52,14.72,14.72,0,0,1-4.23-2s-4.68.53-5.4-.54a3.9,3.9,0,0,1-.63-2.25l-3.42-.52-3.12.51-1.77,2s-1.28,0-1.31-.82c0,0-1.7-.82-1.52-1.35S277,304,277,304l1.38-2.75s8.47-.31,8.79-.09S298,306.7,298,306.7l3.94,1Z" style="fill:#ff9a6c"></path><path d="M299.56,298.66l-13.32-3.36-9.35-.76s-8.08,3.49-7.95,6.81l-1.69.85s.07,2.48,2.08,2a19.64,19.64,0,0,0,2.86-1L270,306.42a3.14,3.14,0,0,0,3,.14c.67-.3,5.49-3.74,5.49-3.74h4s7.26,5.28,10.67,5.92,9.3-.37,9.3-.37Z" style="fill:#ffbf9d"></path><path d="M269.33,304.19c0-.06-.35.05-.89-.06a1.13,1.13,0,0,1-.73-.57,2.4,2.4,0,0,1-.19-1.28l-.08.13,5.89-3.66,1.77-1.1c.55-.33,1.17-.71,1.61-.94a0,0,0,0,1,0,0h.35l.44,0,.86,0,1.54.06a18.64,18.64,0,0,0,3,0,17.84,17.84,0,0,0-3-.35l-1.52-.11-.84-.06-.44,0-.23,0h-.11l-.21,0a17.19,17.19,0,0,0-1.75,1l-1.78,1.09c-2.28,1.42-4.32,2.76-5.83,3.77l-.08,0v.08a2.56,2.56,0,0,0,.3,1.47,1.29,1.29,0,0,0,.94.62,1.63,1.63,0,0,0,.7,0C269.25,304.24,269.33,304.21,269.33,304.19Z" style="fill:#ff9a6c"></path><path d="M270.11,306.21a9.91,9.91,0,0,0,1.45-1.59c.84-1,2-2.45,3.23-4.06l0,0,.16-.12c.42-.3.83-.59,1.24-.85l.61-.35a1.77,1.77,0,0,1,.59-.18,19,19,0,0,1,2.35-.16,13.22,13.22,0,0,0,2.21-.11,8.07,8.07,0,0,0-2.2-.24,14.75,14.75,0,0,0-2.43.07,2.1,2.1,0,0,0-.74.2c-.22.11-.43.23-.65.36-.42.27-.85.55-1.27.87l-.17.12,0,0,0,0c-1.24,1.61-2.34,3.08-3.12,4.15A10.06,10.06,0,0,0,270.11,306.21Z" style="fill:#ff9a6c"></path><path d="M232,424.89l1.69,24.77S209,457.89,208.91,462.5l48.17.24L256,424.05Z" style="fill:#FF725E"></path><g style="opacity:0.6000000000000001"><path d="M248.5,447.09a2,2,0,0,1,1.43,2.2,1.89,1.89,0,0,1-2.17,1.44,2.08,2.08,0,0,1-1.5-2.34,2,2,0,0,1,2.42-1.25" style="fill:#fff"></path></g><g style="opacity:0.6000000000000001"><path d="M257.08,462.74l-.11-3.9-46.52,1.39a3.32,3.32,0,0,0-1.78,2.62Z" style="fill:#fff"></path></g><path d="M232.89,449.44c0,.23,1.2.3,2.38,1s1.83,1.69,2,1.59-.18-1.45-1.63-2.3S232.83,449.22,232.89,449.44Z" style="fill:#263238"></path><path d="M227.91,451.69c0,.23,1,.6,1.81,1.56s1.1,2,1.33,2,.34-1.35-.71-2.54S227.91,451.47,227.91,451.69Z" style="fill:#263238"></path><path d="M225.24,457.83c.21,0,.5-1.15-.14-2.41s-1.76-1.75-1.86-1.55.61.87,1.13,1.91S225,457.81,225.24,457.83Z" style="fill:#263238"></path><path d="M233.13,443.75c.11.21,1.18-.15,2.51-.1s2.38.43,2.49.23-.9-1-2.47-1.05S233,443.57,233.13,443.75Z" style="fill:#263238"></path><g style="opacity:0.30000000000000004"><polygon points="232.75 436.32 233.05 440.73 256.5 441.6 256.35 435.77 232.75 436.32"></polygon></g><path d="M232.88,438.75a4.65,4.65,0,0,0,2.41-.09,10.48,10.48,0,0,0,2.5-.86,11.82,11.82,0,0,0,1.36-.78,2.81,2.81,0,0,0,.71-.59,1,1,0,0,0,.07-1.25,1.29,1.29,0,0,0-1.05-.51,2.9,2.9,0,0,0-.9.16,8.11,8.11,0,0,0-1.48.56,8.51,8.51,0,0,0-2.18,1.53c-1.08,1.07-1.43,2-1.35,2s.63-.68,1.73-1.57a10.15,10.15,0,0,1,2.12-1.28,10,10,0,0,1,1.37-.47c.5-.15.94-.17,1.07.06.05.08.06.11,0,.27a2.7,2.7,0,0,1-.52.43,13.22,13.22,0,0,1-1.25.77,14.34,14.34,0,0,1-2.3,1A16.27,16.27,0,0,0,232.88,438.75Z" style="fill:#263238"></path><path d="M233.2,439.07a3.86,3.86,0,0,0,.56-2.34,7.76,7.76,0,0,0-.41-2.63,8.53,8.53,0,0,0-.67-1.45,2,2,0,0,0-1.57-1.16,1.12,1.12,0,0,0-1,.7,3.3,3.3,0,0,0-.22.89,5.51,5.51,0,0,0,0,1.63,5.68,5.68,0,0,0,1.11,2.45c1,1.22,2,1.47,2,1.39s-.76-.55-1.52-1.72a5.59,5.59,0,0,1-.83-2.25,5,5,0,0,1,0-1.39c.06-.51.23-.93.43-.89s.66.36.87.77a8,8,0,0,1,.64,1.28,8.78,8.78,0,0,1,.54,2.39C233.29,438.15,233.07,439,233.2,439.07Z" style="fill:#263238"></path><path d="M343.33,318.42s-82.34-7.88-85.85-8.13c-13.52-1-25.22,3.14-29.52,13.13a71.87,71.87,0,0,0-2.71,22.49c.31,11.82,1.56,91.57,1.56,91.57l33,.9,3.68-85.81h0l18.42,1.93c-1,0,47.78,4.72,62.49,5,11.32.22,23.77-6.88,25.55-17.1,1.16-6.67,3.37-25.19,3.37-25.19Z" style="fill:#263238"></path><path d="M255,342.53a43,43,0,0,1,4.69,4.45,43.81,43.81,0,0,1,3.57,5.39,5.92,5.92,0,0,0-.66-1.81,18.93,18.93,0,0,0-5.94-7.07A5.71,5.71,0,0,0,255,342.53Z" style="fill:#455a64"></path><path d="M396.65,211.75l1.2,5.9-32.18,18.81,1.68-9.75a49,49,0,0,1,9.86-7.41A92.79,92.79,0,0,1,396.65,211.75Z" style="fill:#f5f5f5"></path><path d="M399,219.45s9.17,20.91,9.66,28.77-2.92,33.83-2.92,33.83l-19.46,57.17-69.76-6.52s21.94-43.09,26.81-51.48,21.53-46.53,21.53-46.53a24.44,24.44,0,0,1,5.74-8.39c6.12-6.14,17.75-9.72,28.2-11.52Z" style="fill:#FF725E"></path><path d="M382,227.77c-6.53.59-15,5.28-18.24,16.64l-3.18,14.07L345.78,286.6l-46.36,11.88,5.48,18.19s45.66-2.35,51.63-3.74S388,277.37,388,277.37s12.84-20.85,10.13-36.55C396.72,233,390.09,227,382,227.77Z" style="fill:#FF725E"></path><path d="M382,227.77l1.11,0a16,16,0,0,1,3.2.33,14.76,14.76,0,0,1,4.77,2,15.29,15.29,0,0,1,4.81,5.09,16.44,16.44,0,0,1,1.63,3.84,10,10,0,0,1,.27,1.08,10.5,10.5,0,0,1,.2,1.12c.08.77.16,1.55.25,2.35A40.49,40.49,0,0,1,397.3,254a68.38,68.38,0,0,1-3.61,11.39,91.59,91.59,0,0,1-5.91,11.93h0c-3.69,4.91-7.7,10.07-12,15.41a206.37,206.37,0,0,1-14.17,16.16,23.1,23.1,0,0,1-4.32,3.52,8.17,8.17,0,0,1-2.68.65c-.94.11-1.89.25-2.85.33-3.84.39-7.75.68-11.72,1-7.93.57-16.09,1.06-24.4,1.54l-10.75.58.25.18-5.49-18.19-.17.3,46.35-11.9.09,0,0-.08,14.78-28.14v-.05c.7-3.09,1.35-6,2-8.8a58.19,58.19,0,0,1,2-7.75,22.69,22.69,0,0,1,7.4-10.16,20.29,20.29,0,0,1,7.15-3.51,18.92,18.92,0,0,1,2-.41l.7-.11s-.24,0-.7.06a17.47,17.47,0,0,0-2.06.37,20,20,0,0,0-7.23,3.46,22.67,22.67,0,0,0-7.53,10.21,56.8,56.8,0,0,0-2.06,7.76l-2,8.81v0l-14.85,28.1.14-.1-46.37,11.85-.24.06.07.24q2.67,8.9,5.48,18.19l.05.18h.19l10.76-.58c8.31-.48,16.47-1,24.41-1.54,4-.29,7.88-.59,11.72-1,1-.09,1.92-.23,2.88-.34.48-.05.95-.15,1.43-.23a3.87,3.87,0,0,0,1.41-.48,23.51,23.51,0,0,0,4.42-3.59A208.16,208.16,0,0,0,376.12,293c4.31-5.36,8.3-10.53,12-15.46h0a93,93,0,0,0,5.91-12A67.83,67.83,0,0,0,397.61,254a41,41,0,0,0,.92-10.46q-.15-1.2-.27-2.37a8.35,8.35,0,0,0-.21-1.13,9.84,9.84,0,0,0-.28-1.1,16.5,16.5,0,0,0-1.68-3.89,15.52,15.52,0,0,0-4.91-5.12,14.9,14.9,0,0,0-4.84-2,15.25,15.25,0,0,0-3.22-.27C382.39,227.73,382,227.77,382,227.77Z" style="fill:#263238"></path><path d="M353.37,297.86a6.71,6.71,0,0,0-.66-1.92,27,27,0,0,0-2.41-4.26,26.2,26.2,0,0,0-3.14-3.76,7.08,7.08,0,0,0-1.55-1.31c-.11.11,2.15,2.23,4.29,5.35S353.23,297.92,353.37,297.86Z" style="fill:#263238"></path><path d="M363.06,238.3a10.69,10.69,0,0,0,1.15-1.15c.35-.38.78-.84,1.32-1.35s1.11-1.12,1.81-1.72a54.2,54.2,0,0,1,5.09-4.05,59.58,59.58,0,0,1,6.85-4.05,73.2,73.2,0,0,1,13.55-5c1.8-.48,3.26-.84,4.27-1.07a9.3,9.3,0,0,0,1.56-.42,10.86,10.86,0,0,0-1.6.23c-1,.17-2.5.48-4.31.92a65.92,65.92,0,0,0-13.69,4.95,54.78,54.78,0,0,0-6.89,4.12,47,47,0,0,0-5.06,4.17c-.7.62-1.26,1.25-1.78,1.78s-.94,1-1.27,1.42A9.11,9.11,0,0,0,363.06,238.3Z" style="fill:#263238"></path><path d="M226.09,252.63a1.58,1.58,0,0,1,2,.94L247.5,306l54,4.94a3.17,3.17,0,0,1,2.87,3.45l-59.19-5.41h0v0l-20-54.24A1.57,1.57,0,0,1,226.09,252.63Z" style="fill:#e0e0e0"></path><path d="M226.09,252.63a1.39,1.39,0,0,0-.86.68,1.64,1.64,0,0,0-.14,1.35c.19.51.4,1.1.64,1.77L229.92,268,245,309v-.07l0,.22.21,0h0L245,309h0l.08.2.2-.07h-.09l58.08,5.33,1.11.1.24,0,0-.25a3.45,3.45,0,0,0-2.13-3.48,3.55,3.55,0,0,0-1-.24l-1-.1-2-.18-7.9-.72-15.25-1.38-27.81-2.52.17.14-14.75-39.66-4.17-11.09c-.24-.64-.46-1.21-.64-1.7a1.66,1.66,0,0,0-1-.86,1.35,1.35,0,0,0-1.06,0,1.68,1.68,0,0,1,1,0,1.55,1.55,0,0,1,.92.84l.61,1.7c.94,2.58,2.31,6.35,4.06,11.13,3.52,9.6,8.55,23.29,14.59,39.73l0,.12.14,0,27.8,2.56,15.26,1.4,7.89.72,2,.18a7.49,7.49,0,0,1,1.91.3,3,3,0,0,1,1.83,3l.26-.23-1.1-.1-58.09-5.27h-.1l.27.12h0l0-.13h-.15l.19.23v-.08l0,0c-6.3-16.93-11.55-31.06-15.24-41l-4.31-11.48-.66-1.75a1.53,1.53,0,0,1,.1-1.28A1.71,1.71,0,0,1,226.09,252.63Z" style="fill:#263238"></path><path d="M245.2,308.94c.12.07.65-.62,1.3-1.47s1.16-1.54,1.06-1.64-.79.47-1.46,1.34S245.09,308.87,245.2,308.94Z" style="fill:#455a64"></path><path d="M254,307.58c0-.06-.25-.23-.61,0a.7.7,0,0,0-.34.68.81.81,0,0,0,1.5.32.74.74,0,0,0,0-.76c-.26-.38-.59-.3-.57-.24s.19.15.25.39a.38.38,0,0,1-.07.35.38.38,0,0,1-.68-.13.34.34,0,0,1,.11-.34C253.77,307.65,254,307.64,254,307.58Z" style="fill:#455a64"></path><path d="M250.53,307.27c0-.06-.25-.22-.61,0a.72.72,0,0,0-.34.69.83.83,0,0,0,.64.69.84.84,0,0,0,.86-.38.72.72,0,0,0,0-.76c-.25-.38-.58-.3-.56-.24s.19.15.25.39a.35.35,0,0,1-.08.35.41.41,0,0,1-.38.16.39.39,0,0,1-.29-.29.33.33,0,0,1,.1-.33C250.32,307.34,250.51,307.33,250.53,307.27Z" style="fill:#455a64"></path><path d="M435.46,164.75s1.86-4.64,9.76-4.18a15.22,15.22,0,0,1,12.56,8.37c.93,1.86,1.86,47.42-4.65,70.66S414.08,369.31,407.57,380l-39.52-2.33s-4.65-20,0-40.44,10.23-31.15,14.88-39.06,23.69-48.81,29.28-61.36l5.59-12.56s-8.77-2.52-9.23-10.89c-.4-7.12,6.94-34.17,9.13-42.06a14.16,14.16,0,0,1,4.09-6.75C424.66,162,429.26,160.11,435.46,164.75Z" style="fill:#455a64"></path><path d="M435.46,164.75a2.67,2.67,0,0,1,0,.65c0,.47-.1,1.08-.17,1.83-.16,1.59-.45,3.89-.85,6.72a197.58,197.58,0,0,1-4.31,21.91,117.26,117.26,0,0,1-3.65,11.76c-.61,1.79-1.36,3.43-2,5s-1.32,3-2,4.22-1.26,2.42-1.89,3.37-1.09,1.82-1.58,2.45l-1.1,1.48a2.44,2.44,0,0,1-.41.5,3.19,3.19,0,0,1,.33-.56c.26-.4.59-.91,1-1.53s.92-1.51,1.5-2.49,1.17-2.12,1.82-3.38,1.25-2.72,2-4.23,1.33-3.2,1.93-5c1.31-3.53,2.5-7.51,3.6-11.72,2.21-8.42,3.54-16.21,4.45-21.84.44-2.82.78-5.1,1-6.69.12-.74.21-1.34.28-1.81A3.16,3.16,0,0,1,435.46,164.75Z" style="fill:#263238"></path><path d="M270.21,370.81s-8.25-20.95,13.47-22.24,83.9,0,83.9,0,9.68.43,10.32,6.88-.86,15.36-.86,15.36Z" style="fill:#455a64"></path><path d="M299.18,413.46l-8.84,49.39h14.59s3-38.77,13.62-49.74l-4.35-9.41Z" style="fill:#e0e0e0"></path><path d="M323.37,413.05l81,49.8h12.47s-45.35-34.83-40.05-52L360.59,398.4l-35.81,10.12Z" style="fill:#e0e0e0"></path><path d="M399.82,318.89l-95.25-1.08c-9.84-.25-18.19,9-20.44,18.62l-.09.37a.18.18,0,0,0,.17.22l135.11.72C419.32,328.23,409.33,319.13,399.82,318.89Z" style="fill:#e0e0e0"></path><path d="M393.23,337s1.67,24.58-18.34,27.28-93.55,1.4-96.56,1.63c-8.1.61-8.12,4.86-8.12,4.86s9.8,39.4,16,40.85,111.56,1.37,112.25,1.62,16.7-52.42,16.7-52.42l4.19-23.38Z" style="fill:#e0e0e0"></path><path d="M398.42,413.28a1.07,1.07,0,0,1-.28,0l-.82,0-3.15,0-11.61,0c-9.79,0-23.32-.15-38.27-.35L306,412.57l-11.6-.14-3.15-.05-.82,0a1,1,0,0,1-.28,0l.28,0,.82,0,3.15,0,11.6,0c9.8,0,23.33.14,38.28.34l38.27.5,11.6.13,3.15.05.82,0Z" style="fill:#263238"></path><path d="M419.32,337.74c0,.14-30,.13-66.94,0s-66.94-.4-66.94-.54,30-.14,66.94,0S419.32,337.6,419.32,337.74Z" style="fill:#263238"></path></g><g id="freepik--character-1--inject-125"><path d="M209.54,221.67l8.7-1.08s4.21-2.6,5.65-2.51,11.3,4.21,11.3,4.21,5.64,4.4,6.09,6,.72,3.32,0,4.3a1.27,1.27,0,0,1-1.07.47A2.81,2.81,0,0,1,238,232L236.53,230a4.42,4.42,0,0,1-2.42,2.34s.9,2.33-2.6,3.49c0,0-1.88,1.88-3.32,2.15s-6.05-3.67-10.67-3.67c-.45,0-8.61.72-8.61.72Z" style="fill:#ffbf9d"></path><path d="M152.74,147.58s13.23,1.3,16.18,11.19c2.54,8.51,9.63,50.47,10.1,53l33.48,7.88-3.59,19.61L170.17,236a9.54,9.54,0,0,1-8.53-8.8l-1.58-21.94Z" style="fill:#FF725E"></path><g style="opacity:0.30000000000000004"><path d="M171.08,201.11a33.15,33.15,0,0,0-5.24-27.17,38.54,38.54,0,0,1,1.83,25.94c-.87,3-2.55,7.36-3.15,10.47-.11.54.25,10,.87,15.28l2.3-1.56c-1.62-3.61-1.28-7.82-.25-11.65S170.12,205,171.08,201.11Z"></path></g><path d="M109.85,104.59A33.66,33.66,0,0,0,120.6,130l4.8-13.92Z" style="fill:#263238"></path><path d="M146.07,76.91a20.41,20.41,0,0,0-13.72-1.66,43.28,43.28,0,0,0-13,5.37,21.26,21.26,0,0,0-6.2,4.83c-3,3.77-6,10-6.24,14.76-.23,3.89,1.25,13.61,2.9,17.14,1.5,3.24,8.55,5.7,12,6.5l31.94-37.14A16.17,16.17,0,0,0,146.07,76.91Z" style="fill:#263238"></path><path d="M151.57,81.92l-7.65-1.37c4.18,10,5.32,32.76,7.71,43.3,2.82-4.09,9.38-16.57,9-21.53S160.67,81.07,151.57,81.92Z" style="fill:#263238"></path><path d="M115.27,98.51a13.09,13.09,0,0,1,9.84-12L142.74,82c7.62-.82,12.71,8.55,13.21,16.2.56,8.49.9,17.46-.1,23.8-2,12.76-11.76,14.4-11.76,14.4s0,6.07,0,9.79l.18,16.21-25.09-18.05-3.94-45.66C115.22,98.45,115.25,98.8,115.27,98.51Z" style="fill:#ffbf9d"></path><path d="M152.87,107.8a1.63,1.63,0,0,1-1.57,1.65,1.56,1.56,0,0,1-1.69-1.47,1.63,1.63,0,0,1,1.57-1.65A1.57,1.57,0,0,1,152.87,107.8Z" style="fill:#263238"></path><path d="M154,103.16c-.21.22-1.45-.7-3.21-.69s-3,.89-3.23.68.11-.48.67-.89a4.47,4.47,0,0,1,2.59-.81,4.29,4.29,0,0,1,2.55.82C154,102.68,154.14,103.07,154,103.16Z" style="fill:#263238"></path><path d="M137.72,107.8a1.64,1.64,0,0,1-1.58,1.65,1.56,1.56,0,0,1-1.69-1.47,1.64,1.64,0,0,1,1.58-1.65A1.57,1.57,0,0,1,137.72,107.8Z" style="fill:#263238"></path><path d="M137.33,103.16c-.21.22-1.45-.7-3.21-.69s-3,.89-3.23.68.1-.48.67-.89a4.47,4.47,0,0,1,2.59-.81,4.29,4.29,0,0,1,2.55.82C137.24,102.68,137.43,103.07,137.33,103.16Z" style="fill:#263238"></path><path d="M142.83,117a11.57,11.57,0,0,1,2.85-.52c.45,0,.88-.14.95-.45a2.25,2.25,0,0,0-.3-1.33c-.42-1.08-.87-2.22-1.34-3.41-1.85-4.87-3.2-8.87-3-9s1.86,3.82,3.72,8.68c.44,1.2.87,2.35,1.28,3.44a2.59,2.59,0,0,1,.23,1.76,1.11,1.11,0,0,1-.73.66,2.85,2.85,0,0,1-.77.11A11.35,11.35,0,0,1,142.83,117Z" style="fill:#263238"></path><path d="M127.18,131.83s4.15,8.76,16.91,7.54v-3A32.13,32.13,0,0,1,127.18,131.83Z" style="fill:#ff9a6c"></path><path d="M136.77,96.8c-.17.48-1.93.26-4,.51s-3.73.82-4,.39c-.12-.2.17-.65.84-1.12a6.75,6.75,0,0,1,3-1,6.6,6.6,0,0,1,3.13.36C136.47,96.2,136.85,96.58,136.77,96.8Z" style="fill:#263238"></path><path d="M153.46,97.78c-.31.4-1.52,0-3,0s-2.69.28-3-.14c-.13-.2.07-.6.6-1a4.34,4.34,0,0,1,4.8.13C153.43,97.17,153.6,97.58,153.46,97.78Z" style="fill:#263238"></path><path d="M152.49,86.52a5.6,5.6,0,0,0-5-3.17,10.93,10.93,0,0,0-5.88,1.71c-7.59,4.39-11.49,15-19,19.53-1.84,1.12-4.24.1-5.81,1.58s-2.59,3.84-1.72,5.81a17.65,17.65,0,0,1-2.6-4.4,6,6,0,0,1,.21-5c.65-1.12,1.79-2,2.11-3.24s-.16-2.27-.12-3.41a7.46,7.46,0,0,1,1.17-3.25,33.13,33.13,0,0,1,12.19-12.83A21.59,21.59,0,0,1,139.27,77a16.52,16.52,0,0,1,10.65,4.23c1.67,1.56,3.44,3.18,2.57,5.3" style="fill:#263238"></path><path d="M117,107.75c-.13-.37-6.78-2.77-6.87,4.3-.09,6.87,6.84,5.51,6.86,5.32S117,107.75,117,107.75Z" style="fill:#ffbf9d"></path><path d="M114.91,114.75s-.12.08-.32.17a1.19,1.19,0,0,1-.9,0,3,3,0,0,1-1.34-2.67,3.93,3.93,0,0,1,.35-1.71,1.37,1.37,0,0,1,.91-.91.6.6,0,0,1,.7.34c.09.19,0,.33.08.34s.15-.12.1-.4a.76.76,0,0,0-.27-.43.85.85,0,0,0-.66-.18,1.67,1.67,0,0,0-1.26,1,4.2,4.2,0,0,0-.43,1.91c0,1.38.73,2.69,1.72,3a1.27,1.27,0,0,0,1.09-.17C114.9,114.91,114.94,114.76,114.91,114.75Z" style="fill:#ff9a6c"></path><path d="M114.29,104.22a2.65,2.65,0,0,0,.41-.23c.27-.17.67-.39,1.16-.74a23.13,23.13,0,0,0,3.7-3.37A64.9,64.9,0,0,0,124.1,94a54.69,54.69,0,0,1,5.66-7.06A21.91,21.91,0,0,1,133.42,84a18,18,0,0,1,4-1.79,19.47,19.47,0,0,1,7.28-.89,18.59,18.59,0,0,1,4.87,1c.57.17,1,.36,1.27.47a2.27,2.27,0,0,0,.45.16,2.9,2.9,0,0,0-.42-.22,12.74,12.74,0,0,0-1.26-.52,17.88,17.88,0,0,0-4.9-1.07,19.49,19.49,0,0,0-7.38.84,18.11,18.11,0,0,0-4,1.81,21.19,21.19,0,0,0-3.72,2.93,53.24,53.24,0,0,0-5.68,7.11,70,70,0,0,1-4.46,5.91,25.13,25.13,0,0,1-3.62,3.42c-.47.36-.86.6-1.11.78A2.58,2.58,0,0,0,114.29,104.22Z" style="fill:#455a64"></path><path d="M114.13,116a1.34,1.34,0,1,0,.32.1" style="fill:#fff"></path><path d="M114.45,116.06a1.86,1.86,0,0,1,.62.92,1.15,1.15,0,0,1-.27,1.08,1.2,1.2,0,0,1-2.11-.67,1.14,1.14,0,0,1,.4-1,1.94,1.94,0,0,1,1-.4s-.1-.07-.32-.08a1.46,1.46,0,0,0-.86.3,1.39,1.39,0,0,0-.55,1.24,1.48,1.48,0,0,0,2.62.84,1.36,1.36,0,0,0,.26-1.33,1.44,1.44,0,0,0-.52-.74C114.58,116.07,114.46,116.05,114.45,116.06Z" style="fill:#263238"></path><path d="M116,106.16c-.11,1.88-.2,3.86.67,5.52s3,2.8,4.68,1.87c1.33-.76,1.73-2.46,2-4,.65-4.37,1-8.79,1.63-13.16Z" style="fill:#263238"></path><path d="M150.8,83.26s-.61-.12-1.71-.15a11.7,11.7,0,0,0-4.55.83,14.48,14.48,0,0,0-2.84,1.46,29.55,29.55,0,0,0-2.94,2.25A35.48,35.48,0,0,0,133,93.84c-.87,1.23-1.65,2.49-2.48,3.66a17.57,17.57,0,0,1-2.76,3.09,30,30,0,0,1-5.8,3.88c-1.76.93-3.23,1.58-4.24,2l-1.17.5a2.26,2.26,0,0,1-.42.15,2.09,2.09,0,0,1,.38-.22l1.15-.56c1-.49,2.44-1.18,4.17-2.14a31,31,0,0,0,5.7-3.91,17.66,17.66,0,0,0,2.68-3c.82-1.16,1.59-2.42,2.47-3.66a35.24,35.24,0,0,1,5.84-6.25,31.43,31.43,0,0,1,3-2.24,15,15,0,0,1,2.93-1.45A11.21,11.21,0,0,1,149.1,83a8.35,8.35,0,0,1,1.27.17A1.59,1.59,0,0,1,150.8,83.26Z" style="fill:#455a64"></path><path d="M115.83,101.92a3.68,3.68,0,0,1-.61.41l-1.74,1-.59.33a1.75,1.75,0,0,1-.75.25.67.67,0,0,1-.46-.11.59.59,0,0,1-.26-.45,1.54,1.54,0,0,1,.33-.87l2-3.23.28.25a7.15,7.15,0,0,1-2.21,1.1,7,7,0,0,1-2.46.29,1.91,1.91,0,0,1-.62-.1.82.82,0,0,1-.53-.47.72.72,0,0,1,.11-.69,2.79,2.79,0,0,1,.39-.43,14.55,14.55,0,0,0,2.34-3,25.54,25.54,0,0,0,1.49-3.16,3.85,3.85,0,0,1-.22.92,12.94,12.94,0,0,1-1,2.38A14.19,14.19,0,0,1,109,99.47c-.26.25-.51.52-.41.74s.47.32.83.33a6.69,6.69,0,0,0,2.33-.29,6.8,6.8,0,0,0,2.09-1l.82-.6-.55.85c-.73,1.15-1.42,2.23-2.06,3.21a1.37,1.37,0,0,0-.29.67.33.33,0,0,0,.4.29,3.32,3.32,0,0,0,1.23-.51l1.8-.92A2.85,2.85,0,0,1,115.83,101.92Z" style="fill:#455a64"></path><path d="M136.14,120.23a2.3,2.3,0,0,1,2.37-1.75,2.38,2.38,0,0,1,1.84,1.32,2.94,2.94,0,0,1,.11,2.29l0,.17a2.62,2.62,0,0,1-2.94.62A2.42,2.42,0,0,1,136.14,120.23Z" style="fill:#ff9a6c"></path><path d="M141.7,122.29c0-.26-1.78-.18-3.12-1.64s-1.24-3.36-1.49-3.36-.32.44-.3,1.24a4.41,4.41,0,0,0,1.14,2.81,3.83,3.83,0,0,0,2.6,1.26C141.28,122.63,141.71,122.41,141.7,122.29Z" style="fill:#263238"></path><rect x="187.3" y="205.29" width="21.61" height="19.69" style="fill:#e0e0e0"></rect><path d="M187.3,220a5.3,5.3,0,0,1,0-10.59v2a3.3,3.3,0,0,0,0,6.59Z" style="fill:#e0e0e0"></path><rect x="189.27" y="222.79" width="17.68" height="5.25" style="fill:#e0e0e0"></rect><path d="M209.18,225c0,.15-4.89.26-10.92.26s-10.92-.11-10.92-.26,4.89-.26,10.92-.26S209.18,224.83,209.18,225Z" style="fill:#263238"></path><rect x="149.67" y="227.56" width="96.52" height="4.87" style="fill:#455a64"></rect><rect x="216.06" y="197.72" width="18.45" height="29.85" style="fill:#ebebeb"></rect><path d="M232.86,225.41H217.78V208l5.47,1.24A12.77,12.77,0,0,0,230,209l2.84-.93Z" style="fill:#fff"></path><path d="M220.76,227.56a14.91,14.91,0,0,1-.19-2.88c0-1,0-2,0-3.14A2.2,2.2,0,0,0,220,220a2.07,2.07,0,0,0-1.56-.7,2,2,0,0,0-1.56.7,2.11,2.11,0,0,0-.53,1.54c0,1.14,0,2.19-.06,3.14a16.72,16.72,0,0,1-.18,2.88,14.91,14.91,0,0,1-.19-2.88c0-1,0-2,0-3.14a2.57,2.57,0,0,1,.62-1.87,2.55,2.55,0,0,1,3.89,0,2.58,2.58,0,0,1,.63,1.87c0,1.14,0,2.19-.06,3.14A16.72,16.72,0,0,1,220.76,227.56Z" style="fill:#e0e0e0"></path><path d="M225.35,227.56a16.72,16.72,0,0,1-.18-2.88c0-1,0-2-.06-3.14a2.15,2.15,0,0,0-.53-1.54,2.09,2.09,0,0,0-3.12,0,2.15,2.15,0,0,0-.53,1.54c0,1.14,0,2.19-.05,3.14a16,16,0,0,1-.19,2.88,15.54,15.54,0,0,1-.18-2.88c0-1,0-2-.06-3.14a2.6,2.6,0,0,1,2.57-2.77,2.61,2.61,0,0,1,1.95.9,2.57,2.57,0,0,1,.62,1.87c0,1.14,0,2.19-.05,3.14A16,16,0,0,1,225.35,227.56Z" style="fill:#e0e0e0"></path><path d="M230,227.56a16,16,0,0,1-.19-2.88c0-1,0-2,0-3.14a2.15,2.15,0,0,0-.53-1.54,2.09,2.09,0,0,0-3.12,0,2.15,2.15,0,0,0-.53,1.54c0,1.14,0,2.19-.06,3.14a16.72,16.72,0,0,1-.18,2.88,16,16,0,0,1-.19-2.88c0-1,0-2,0-3.14a2.57,2.57,0,0,1,.62-1.87,2.55,2.55,0,0,1,3.89,0,2.58,2.58,0,0,1,.63,1.87c0,1.14,0,2.19-.06,3.14A16.72,16.72,0,0,1,230,227.56Z" style="fill:#e0e0e0"></path><path d="M234.54,227.56a16.72,16.72,0,0,1-.18-2.88c0-1,0-2-.06-3.14a2.11,2.11,0,0,0-.53-1.54,2,2,0,0,0-1.56-.7,2.07,2.07,0,0,0-1.56.7,2.2,2.2,0,0,0-.53,1.54c0,1.14,0,2.19-.05,3.14a16,16,0,0,1-.19,2.88,16.72,16.72,0,0,1-.18-2.88c0-1,0-2-.06-3.14a2.6,2.6,0,0,1,2.57-2.77,2.61,2.61,0,0,1,1.95.9,2.57,2.57,0,0,1,.62,1.87c0,1.14,0,2.19-.05,3.14A14.91,14.91,0,0,1,234.54,227.56Z" style="fill:#e0e0e0"></path><path d="M234.42,197.91a11.59,11.59,0,0,1-2.65.71,37.1,37.1,0,0,1-13.18.08,11.17,11.17,0,0,1-2.66-.67,19.31,19.31,0,0,1,2.71.31,54,54,0,0,0,6.54.39,51.41,51.41,0,0,0,6.53-.48A23.57,23.57,0,0,1,234.42,197.91Z" style="fill:#263238"></path><path d="M97.76,330c-1,2.24,0,35.56,0,35.56s-7.87,27.51-8.83,37.12-2.06,54.83-2.06,54.83l15.65-.57L123.08,371l2.56-29.8Z" style="fill:#ffbf9d"></path><path d="M132.44,341.48s.15,17.12-.59,22.66c-1.35,10.15-3.45,30.67-3.32,40.83.17,13.5,3.29,54.21,3,55.17h15.79s11.54-98.48,11.78-107.77Z" style="fill:#ffbf9d"></path><path d="M104.64,450.93V452s18.9,7.32,19.14,10.89l-37.33-.08.41-12.09A21.4,21.4,0,0,0,104.64,450.93Z" style="fill:#FF725E"></path><path d="M90.68,454.71a1.52,1.52,0,0,0-1,1.74,1.46,1.46,0,0,0,1.72,1.05,1.61,1.61,0,0,0,1.1-1.85,1.54,1.54,0,0,0-1.92-.9" style="fill:#fff"></path><path d="M86.46,462.85l.09-2.65,35.76.85s1.66.71,1.48,1.88Z" style="fill:#263238"></path><path d="M104.79,452.14c0,.18-.92.27-1.81.87s-1.37,1.36-1.54,1.29.1-1.13,1.19-1.83S104.82,452,104.79,452.14Z" style="fill:#263238"></path><path d="M108.71,453.73c.05.18-.74.5-1.35,1.27s-.79,1.59-1,1.59-.31-1,.47-2S108.71,453.56,108.71,453.73Z" style="fill:#263238"></path><path d="M111,458.41c-.16,0-.42-.87,0-1.87s1.31-1.41,1.39-1.26-.45.69-.82,1.52S111.15,458.39,111,458.41Z" style="fill:#263238"></path><path d="M148.63,450.54v1.11s18.9,7.33,19.14,10.9l-37.34.25.42-12.43A21.32,21.32,0,0,0,148.63,450.54Z" style="fill:#FF725E"></path><path d="M134.67,454.32a1.53,1.53,0,0,0-1,1.75,1.46,1.46,0,0,0,1.72,1.05,1.61,1.61,0,0,0,1.1-1.86,1.53,1.53,0,0,0-1.92-.89" style="fill:#fff"></path><path d="M130.44,462.8l.1-3,35.76.85s1.66.71,1.48,1.89Z" style="fill:#263238"></path><path d="M148.78,451.76c0,.18-.92.27-1.81.86s-1.37,1.36-1.54,1.29.1-1.12,1.19-1.82S148.81,451.59,148.78,451.76Z" style="fill:#263238"></path><path d="M152.7,453.35c.05.18-.74.49-1.36,1.27s-.78,1.59-1,1.58-.31-1,.47-2S152.7,453.18,152.7,453.35Z" style="fill:#263238"></path><path d="M155,458c-.16,0-.42-.87,0-1.87s1.31-1.4,1.39-1.25-.45.69-.82,1.51S155.14,458,155,458Z" style="fill:#263238"></path><path d="M115.63,235.21s-21.78,14.52-23.34,40.46-6.22,90.25-6.22,90.25a166.91,166.91,0,0,0,43.57,4.66c24.9-.52,46.31-10,46.31-10l-11-99.95,1.55-12.44Z" style="fill:#FF725E"></path><path d="M152.39,288.92a2.88,2.88,0,0,1-.2.63l-.66,1.78L149,297.84c-2.2,5.48-5.3,13-8.85,21.3s-6.86,15.74-9.31,21.11l-2.93,6.35-.83,1.71a2.52,2.52,0,0,1-.32.58,2.82,2.82,0,0,1,.22-.62l.74-1.76,2.79-6.41c2.36-5.47,5.59-12.92,9.16-21.16l9-21.24,2.72-6.44c.31-.72.56-1.3.76-1.75A4.56,4.56,0,0,1,152.39,288.92Z" style="fill:#263238"></path><polygon points="145.55 141.73 144.21 140.13 140.64 152.4 118.12 137.51 116.72 139.91 116.91 150 137.06 195.56 147.07 205.29 154.66 201.84 154.38 174.05 145.55 141.73" style="fill:#ebebeb"></polygon><g style="opacity:0.30000000000000004"><polygon points="95.08 262.16 152.74 275.38 165.53 268.77 165.03 262.16 97.96 255.6 95.08 262.16"></polygon></g><path d="M100.91,150l14.22-6.32,1.59-4.8L137,169.18l15,31.16L151.87,272l-57.93-12.4,11.86-34.15-11-69.29A19,19,0,0,1,100.91,150Z" style="fill:#FF725E"></path><path d="M164.52,210.35,166,238.49l3.64,25.8L151.87,272l-2.82-71.46-1.36-27.6.09-19.07-2.32-12.73.92.6,3.34,5.36,3,.52s10,20,14,35.8c2.22,8.66,1.87,11.79-.2,20.5A41.18,41.18,0,0,1,164.52,210.35Z" style="fill:#FF725E"></path><path d="M149.45,199a4.7,4.7,0,0,1-.47-.56l-1.26-1.67-4.58-6.21L128.19,170l-6.5-9-.06-.09,0-.1q.6-3.09,1.14-5.9l.31.26-4.73,2-.22.1-.06-.24c-.92-4-1.67-7.38-2.21-9.75-.25-1.12-.44-2-.58-2.69a5.91,5.91,0,0,1-.17-.94,5,5,0,0,1,.28.92l.69,2.66c.58,2.36,1.4,5.67,2.39,9.71l-.28-.14,4.71-2.05.4-.18-.08.43q-.52,2.81-1.11,5.9l0-.19,6.53,9,14.82,20.68,4.44,6.3,1.19,1.73A3.06,3.06,0,0,1,149.45,199Z" style="fill:#263238"></path><path d="M166.11,236.54a2.5,2.5,0,0,1-.07-.5c0-.38-.08-.86-.14-1.46-.1-1.34-.24-3.18-.42-5.47-.32-4.73-.77-11.28-1.28-18.83v-.1c1-2.84,2.11-5.88,3.1-9.07a39.39,39.39,0,0,0,1.58-7,31,31,0,0,0,0-6.67,59.26,59.26,0,0,0-2.43-11.1c-.45-1.56-.93-2.94-1.33-4.17s-.77-2.27-1.07-3.13-.51-1.48-.69-2a3.37,3.37,0,0,1-.2-.7,3.29,3.29,0,0,1,.3.66l.78,2c.33.85.73,1.88,1.15,3.11s.94,2.6,1.41,4.16a56,56,0,0,1,2.55,11.15,30.71,30.71,0,0,1,0,6.78,38.25,38.25,0,0,1-1.58,7.1c-1,3.21-2.13,6.25-3.12,9.09v-.1c.44,7.56.82,14.11,1.1,18.84.11,2.29.2,4.14.27,5.48,0,.6,0,1.08.05,1.46A1.79,1.79,0,0,1,166.11,236.54Z" style="fill:#263238"></path><path d="M119.31,186.19l12.92,0s-4.43-7.11-7.72-6.42C122,180.34,119.31,186.19,119.31,186.19Z" style="fill:#ebebeb"></path><rect x="156.72" y="182.22" width="12.95" height="3.99" style="fill:#455a64"></rect><path d="M140.55,152.67a2.19,2.19,0,0,1-.7-.2l-.8-.3-.5-.2-.15-.08h0c.05,0,.14,0,.14,0h0l0,.05c0,.09-.06.18-.1.28-.49,1.62-1.07,3.95-1.77,6.62l-.1.37-.3-.24-2.68-2.08c-2.82-2.21-5.36-4.24-7.18-5.72-.91-.74-1.64-1.35-2.14-1.78a3.82,3.82,0,0,1-.74-.71,3.82,3.82,0,0,1,.86.55c.54.38,1.31.94,2.24,1.65,1.88,1.41,4.46,3.39,7.28,5.6l2.67,2.1-.4.13c.73-2.67,1.38-5,2-6.59a2.71,2.71,0,0,1,.13-.3.9.9,0,0,1,.05-.09l0-.05a.2.2,0,0,1,.17,0c.08,0,.05,0,.06,0l.1.06.48.24.77.36A2.39,2.39,0,0,1,140.55,152.67Z" style="fill:#263238"></path><path d="M147.69,154a8.47,8.47,0,0,1-.57,2.2l-.1.31-.24-.23c-.69-.66-1.55-1.52-2.47-2.46s-1.81-1.89-2.46-2.61h.29a8,8,0,0,1-1.59,1.47,7.58,7.58,0,0,1,1.29-1.74l.14-.16.16.15c.7.67,1.59,1.55,2.54,2.53s1.75,1.82,2.4,2.53l-.35.08A8.64,8.64,0,0,1,147.69,154Z" style="fill:#263238"></path><path d="M146.38,141.7s.17.23.46.68l1.3,2,4.92,7.77.05.08-.07.08-1.92,2,0-.22,2.91,1.62.09.05v.1c-.85,10.74-2,25.7-3.41,43.13v0c.22,10.83.46,22.72.72,35.16.26,13.39.5,26.15.72,37.76v.3l-.3-.06-41.71-9-11.92-2.62L95,259.83l-.82-.19-.27-.08.28,0,.82.15,3.18.65,12,2.48,41.75,8.85-.29.24c-.23-11.61-.49-24.37-.76-37.76-.24-12.44-.47-24.33-.68-35.16v0h0c1.45-17.42,2.69-32.38,3.58-43.12l.08.15-2.9-1.64-.15-.09.12-.13,1.94-2,0,.15L148,144.48l-1.24-2.06C146.51,142,146.38,141.7,146.38,141.7Z" style="fill:#263238"></path><g style="opacity:0.30000000000000004"><path d="M100.29,241.28l52.45,1.09v-3.12s9.13,4.36,10.45,3.89a13.1,13.1,0,0,0,3.08-1.93l-.66-7.32-23-.62-40.2,1.94Z"></path></g><path d="M166.06,238.92a10.35,10.35,0,0,1,.35,1.73c.19,1.21.45,2.82.76,4.77.62,4,1.44,9.59,2.31,15.74.15,1.06.3,2.1.44,3.1l0,.19-.18.08c-5,2.16-9.5,4.05-12.71,5.38l-3.78,1.55a9,9,0,0,1-1.41.5,8.71,8.71,0,0,1,1.33-.67l3.73-1.69c3.17-1.42,7.6-3.37,12.63-5.54l-.15.27-.44-3.1c-.88-6.15-1.64-11.72-2.16-15.76-.25-2-.45-3.57-.6-4.79A12.57,12.57,0,0,1,166.06,238.92Z" style="fill:#263238"></path><path d="M136.35,192.34a1.55,1.55,0,0,1,0-.45c0-.33,0-.73,0-1.22,0-1.11-.05-2.61-.09-4.46l.16.17c-4.63.05-11.71.09-19.62.09.11-.12-.26.26.26-.26h0v3.11c0,1,0,2,0,3l-.25-.25c5.59,0,10.45.06,13.95.11l4.14.08,1.12,0,.42,0a13.56,13.56,0,0,1-1.43.07l-4.07.07c-3.49.05-8.44.1-14.13.11h-.26v-6.36h0l.26-.26c7.91,0,15,0,19.62.09h.18v.17c0,1.89-.07,3.42-.09,4.56S136.37,192.36,136.35,192.34Z" style="fill:#263238"></path><path d="M148.32,192.52a9,9,0,0,1-.32-1.61c-.19-1.12-.43-2.6-.72-4.39-.6-3.72-1.48-8.84-2.58-14.47s-2.24-10.71-3.08-14.37c-.41-1.77-.75-3.23-1-4.35a8.25,8.25,0,0,1-.31-1.6,10.33,10.33,0,0,1,.5,1.55c.3,1,.7,2.49,1.16,4.31.94,3.65,2.13,8.72,3.24,14.36s1.92,10.78,2.43,14.51c.26,1.87.45,3.38.56,4.43A10.91,10.91,0,0,1,148.32,192.52Z" style="fill:#263238"></path><path d="M102.08,153.05c-.66,0-9.36-.91-11.88,13.8s-2.94,55.91-2.52,59.48-.84,9.88,11.14,12,50.23,0,50.23,0V220.89l-35.94-5.07s1.49-26.41,2.12-36.07S117.21,153.78,102.08,153.05Z" style="fill:#FF725E"></path><path d="M114.51,182.36s0,.2,0,.59,0,1-.05,1.71c0,1.53-.13,3.76-.23,6.63-.22,5.78-.54,14.14-.94,24.54l-.16-.18,36,5,.21,0v.21c0,5.56,0,11.4,0,17.42v.24h-.24c-10.29.53-21.4.95-32.91.95-4.15,0-8.25-.1-12.29-.38a47.59,47.59,0,0,1-6-.75,19.06,19.06,0,0,1-5.65-2c-.44-.22-.83-.55-1.25-.81a10.64,10.64,0,0,1-1.11-1,8.35,8.35,0,0,1-1.59-2.51,20.84,20.84,0,0,1-.84-5.68c-.21-3.8-.13-7.46-.11-11.06C87.48,201,88,188,88.84,177.18c.23-2.71.48-5.29.81-7.72.2-1.21.3-2.4.59-3.53.12-.56.25-1.12.37-1.67s.33-1.06.49-1.58a23.86,23.86,0,0,1,5.69-9.44,21.4,21.4,0,0,1,5.68-4.08,13.35,13.35,0,0,1,1.7-.68,1.88,1.88,0,0,1,.61-.12,9.63,9.63,0,0,0-2.26.89,21.89,21.89,0,0,0-5.58,4.13,23.7,23.7,0,0,0-5.56,9.39c-.16.52-.33,1-.48,1.57s-.24,1.1-.36,1.66c-.28,1.11-.37,2.3-.56,3.5-.31,2.43-.56,5-.78,7.71C88.38,188,87.93,201,87.8,215.35c0,3.58-.09,7.29.13,11a19.72,19.72,0,0,0,.81,5.56,7.94,7.94,0,0,0,1.49,2.35,11.73,11.73,0,0,0,1,.94,10.73,10.73,0,0,0,1.2.78A18.41,18.41,0,0,0,98,237.87a44.48,44.48,0,0,0,5.93.74c4,.28,8.11.35,12.26.37,11.48,0,22.59-.41,32.88-.92l-.24.25c0-6,0-11.86,0-17.42l.21.23L113.08,216l-.16,0v-.16c.47-10.4.84-18.76,1.11-24.54.14-2.87.24-5.09.32-6.62,0-.74.07-1.31.1-1.72S114.51,182.36,114.51,182.36Z" style="fill:#263238"></path><path d="M114.74,172.25c-.09,0,0-1.3-.45-3.32a18.16,18.16,0,0,0-9.18-12.54c-1.81-1-3.06-1.35-3-1.43a2.46,2.46,0,0,1,.89.18,16.17,16.17,0,0,1,2.31.92,17.21,17.21,0,0,1,9.37,12.8,13.84,13.84,0,0,1,.18,2.48A2.47,2.47,0,0,1,114.74,172.25Z" style="fill:#263238"></path><path d="M114.08,215.65a23.59,23.59,0,0,0-5.89,3,23.61,23.61,0,0,0-4.44,4.93,5.26,5.26,0,0,1,.86-1.8,14.32,14.32,0,0,1,7.51-5.8A5.3,5.3,0,0,1,114.08,215.65Z" style="fill:#263238"></path><path d="M149.05,222.5l2.06-.25s7-2.7,8.48-2.61,9.15,4.38,9.15,4.38,5.41,4.78,6.35,6.25,1,2.16.62,3a2.09,2.09,0,0,1-1.4.93,4.06,4.06,0,0,1-2.52-.93L170.14,232s-.71,2.11-2.39,2.57c0,0,.81,2.28-2.83,3.5,0,0,.26,2.19-2.44,2.37-1.51.09-7.31-4-12.11-4-.47,0-1.14.08-1.14.08Z" style="fill:#ffbf9d"></path><path d="M165.06,228.74a7.32,7.32,0,0,1,5,3.44c-.12.1-1-.9-2.41-1.83S165,228.88,165.06,228.74Z" style="fill:#ff9a6c"></path><path d="M163.74,232.62a5.3,5.3,0,0,1,2.12.77c1.11.54,1.95,1.09,1.89,1.22a5,5,0,0,1-2.12-.76C164.52,233.3,163.67,232.75,163.74,232.62Z" style="fill:#ff9a6c"></path><path d="M162.24,236.6c0-.13.71,0,1.47.34s1.33.68,1.27.81-.71,0-1.47-.33S162.18,236.73,162.24,236.6Z" style="fill:#ff9a6c"></path><path d="M117.9,137.16l-.37-6.49c9.12,4.58,17.61,7.19,26.66,6.22l0,3.24-1.19,4.1S129.46,145.74,117.9,137.16Z" style="fill:#455a64"></path><path d="M112.21,129.19a8.25,8.25,0,0,0-5.72-1.51c-2.64.41-4.67,2.45-6.64,4.24s-4.41,3.55-7.06,3.19a23.38,23.38,0,0,0,23.23-.27l.59-1.53A24.18,24.18,0,0,0,112.21,129.19Z" style="fill:#455a64"></path><path d="M112.21,129.19s.13.05.36.19a10.5,10.5,0,0,1,1,.71,28.14,28.14,0,0,1,3.2,3.11l.06.08,0,.09c-.19.49-.38,1-.58,1.53l0,.06-.06,0a22.73,22.73,0,0,1-8.14,3,23.56,23.56,0,0,1-10.68-.68,23.14,23.14,0,0,1-4.63-2l-1.15-.65,1.32.18A6.55,6.55,0,0,0,97,133.81a20.93,20.93,0,0,0,3.25-2.55,24.85,24.85,0,0,1,2.92-2.4,8.18,8.18,0,0,1,3-1.29,7.32,7.32,0,0,1,4.58.72,9.48,9.48,0,0,1,1.09.62c.23.17.35.26.34.28s-.52-.31-1.5-.74a7.5,7.5,0,0,0-4.45-.56,8.17,8.17,0,0,0-2.86,1.3,24.88,24.88,0,0,0-2.85,2.4,21.21,21.21,0,0,1-3.3,2.64,7,7,0,0,1-4.49,1.13l.16-.47a22.93,22.93,0,0,0,4.52,1.92,23.57,23.57,0,0,0,10.45.71,22.85,22.85,0,0,0,8-2.84l-.08.09.61-1.52,0,.17a34.45,34.45,0,0,0-3.06-3.2C112.66,129.53,112.19,129.22,112.21,129.19Z" style="fill:#263238"></path><path d="M120.16,134.38a2.78,2.78,0,1,1-2.77-2.77A2.78,2.78,0,0,1,120.16,134.38Z" style="fill:#455a64"></path><path d="M115.9,133.74a6.46,6.46,0,0,0-5.59,1.75,8.62,8.62,0,0,0-2,4.79c-.27,1.74-.31,3.52-.74,5.22a6.57,6.57,0,0,1-2.87,4.25,12,12,0,0,0,11.37-16Z" style="fill:#455a64"></path><path d="M115.9,133.74s0,0,.16-.05h0a9,9,0,0,1,.61,2.08,12.08,12.08,0,0,1-.14,4.89,11.8,11.8,0,0,1-3.49,6,12.46,12.46,0,0,1-7.73,3.3h-.64l-1,0,.92-.51a6,6,0,0,0,2.51-3.31,17.71,17.71,0,0,0,.74-4,21,21,0,0,1,.63-3.7,7.6,7.6,0,0,1,1.5-2.93,6.41,6.41,0,0,1,5.51-2,1.16,1.16,0,0,1,.43.1s-.62-.07-1.7.06a6.07,6.07,0,0,0-4,2,7.24,7.24,0,0,0-1.37,2.81,20.62,20.62,0,0,0-.56,3.63,18.29,18.29,0,0,1-.74,4.11,6.41,6.41,0,0,1-2.74,3.59l-.13-.49h.61a12.21,12.21,0,0,0,7.43-3.13,11.61,11.61,0,0,0,3.45-5.77,12.74,12.74,0,0,0,.29-4.77,20.63,20.63,0,0,0-.43-2.09h0C115.92,133.75,115.9,133.75,115.9,133.74Z" style="fill:#263238"></path><path d="M117.66,131.6c0,.14-.94,0-1.71.61s-.77,1.57-.91,1.57-.17-.22-.14-.62a2,2,0,0,1,2.18-1.81C117.47,131.39,117.68,131.53,117.66,131.6Z" style="fill:#263238"></path><path d="M117.9,137.16a10.4,10.4,0,0,1-.45-3.23,10.49,10.49,0,0,1,.08-3.26,10.51,10.51,0,0,1,.44,3.23A10.33,10.33,0,0,1,117.9,137.16Z" style="fill:#263238"></path></g></svg>